<svg xmlns="http://www.w3.org/2000/svg" viewBox="0 0 64 64">
  <rect width="64" height="64" rx="14" fill="#071624" />
  <rect x="3" y="3" width="58" height="58" rx="11" fill="none" stroke="#1fa987" stroke-opacity="0.35" stroke-width="2" />
  <g fill="none" stroke="#2eb899" stroke-linecap="round" stroke-linejoin="round" stroke-width="3.1">
    <path d="M50.2 40.3h3.1c.9 0 1.5-.6 1.5-1.5v-4.6c0-1.4-1.1-2.5-2.2-2.9-2.8-.8-6.9-1.7-6.9-1.7s-2-2.2-3.4-3.5c-.7-.6-1.7-1.1-2.7-1.1H28.7c-.9 0-1.7.6-2.1 1.4l-2.1 4.4a5.7 5.7 0 0 0-.3 1.8v6.2c0 .9.6 1.5 1.5 1.5h3.1"></path>
    <circle cx="31.8" cy="40.3" r="2.9" />
    <path d="M34.9 40.3h9.2"></path>
    <circle cx="47.1" cy="40.3" r="2.9" />
  </g>
</svg>
